<?xml version="1.0" standalone="no"?>
<!DOCTYPE svg PUBLIC "-//W3C//DTD SVG 20010904//EN"
 "http://www.w3.org/TR/2001/REC-SVG-20010904/DTD/svg10.dtd">
<svg version="1.0" xmlns="http://www.w3.org/2000/svg"
 width="190.000000pt" height="190.000000pt" viewBox="0 0 794.000000 794.000000"
 preserveAspectRatio="xMidYMid meet">

<g transform="translate(0.000000,794.000000) scale(0.100000,-0.100000)"
fill="rgba(0, 0, 0, 1)" stroke="none">
<path d="M0 3970 l0 -3970 3970 0 3970 0 0 3970 0 3970 -3970 0 -3970 0 0
-3970z m5644 780 c20 -7 26 -16 26 -40 0 -30 -1 -31 -37 -26 -25 4 -19 1 17
-9 30 -8 73 -20 95 -26 l39 -11 -24 -14 c-14 -7 -34 -11 -45 -9 l-20 5 20 -10
c11 -5 65 -26 120 -46 148 -54 294 -119 540 -237 211 -102 312 -138 352 -123
8 3 103 -3 211 -14 179 -18 207 -19 302 -6 58 8 107 12 109 10 9 -8 14 -61 11
-109 -5 -93 -4 -120 8 -198 7 -43 12 -120 12 -170 0 -81 3 -95 26 -128 14 -21
43 -50 65 -65 l39 -27 -2 -111 c-1 -61 -3 -84 -5 -51 -1 33 -5 78 -8 100 -5
40 -6 40 -48 39 -30 -1 -33 0 -9 3 17 2 32 8 32 14 0 5 -4 9 -9 9 -13 0 -110
100 -116 120 -5 15 -11 17 -37 10 -56 -17 -163 -15 -189 2 -32 20 -68 96 -82
169 l-12 61 -640 -4 -640 -3 -17 21 c-16 19 -32 23 -138 29 -99 6 -124 5 -143
-8 -13 -8 -32 -17 -43 -20 -10 -2 -5 -3 11 -1 115 13 273 16 293 5 26 -14 29
-37 5 -49 -31 -16 -91 -23 -98 -12 -8 13 -168 13 -182 -1 -14 -14 -95 1 -101
19 -2 6 7 16 20 21 12 6 17 10 9 10 -8 1 -22 -5 -30 -13 -12 -11 -78 -17 -286
-26 -149 -7 -382 -17 -520 -24 -239 -12 -251 -12 -268 6 -10 10 -23 18 -28 18
-6 0 -1 -9 12 -19 24 -20 24 -20 4 -39 -21 -21 -101 -36 -111 -21 -7 13 -184
12 -184 -1 0 -13 -51 -13 -85 0 -15 6 -25 16 -23 22 5 15 100 35 213 46 74 8
78 9 52 20 -42 18 -98 15 -138 -7 -20 -11 -54 -23 -75 -27 -22 -3 -47 -14 -57
-22 -13 -12 -54 -18 -155 -24 -448 -28 -1426 -108 -1542 -126 -54 -9 -60 -26
-23 -66 l27 -29 149 7 c83 3 148 4 146 2 -2 -2 -66 -12 -142 -21 -112 -13
-144 -14 -168 -5 -35 15 -69 55 -69 81 0 23 -13 23 -163 8 -92 -10 -116 -9
-165 5 -153 43 -312 27 -461 -45 -55 -27 -105 -44 -147 -49 -58 -7 -72 -14
-165 -83 -56 -41 -118 -79 -138 -85 -20 -6 -110 -11 -200 -11 -89 0 -166 -2
-169 -6 -3 -3 -9 -24 -13 -48 l-6 -42 -2 41 c-1 44 23 110 89 247 35 72 51 94
84 115 94 59 222 106 451 165 76 20 170 53 225 80 164 78 261 93 781 117 124
6 241 15 259 20 23 7 74 5 160 -4 207 -23 246 -9 557 207 207 143 336 225 487
307 l80 44 -47 15 -48 16 83 23 c129 35 268 61 458 85 157 19 223 21 645 22
383 0 496 -3 610 -17 77 -10 163 -20 190 -22 l50 -5 -53 10 c-60 12 -60 15 -5
34 45 17 121 19 157 5z m279 -161 c185 -64 806 -348 779 -357 -6 -2 -68 26
-139 62 -184 92 -486 220 -636 270 -70 24 -130 46 -134 50 -16 15 46 3 130
-25z m-2418 -8 c-6 -4 -66 -34 -135 -66 -155 -72 -257 -127 -583 -317 -142
-83 -260 -149 -262 -147 -2 3 134 88 303 189 331 199 615 350 659 350 16 0 23
-4 18 -9z m2068 -792 c-24 -10 -105 -11 -120 -1 -6 4 23 7 64 7 41 1 66 -2 56
-6z m-1471 -71 c-23 -9 -124 -9 -138 0 -7 4 26 7 72 7 46 0 76 -3 66 -7z
m-1602 -108 c0 -5 -15 -11 -32 -14 -70 -11 -328 -28 -343 -23 -39 16 -4 25
123 34 192 14 252 14 252 3z m-755 -44 c96 -31 186 -88 252 -160 47 -52 104
-147 117 -196 4 -14 -10 7 -31 45 -69 129 -197 236 -340 284 -270 91 -586 -39
-720 -296 -15 -28 -29 -50 -31 -48 -11 10 79 158 127 208 167 177 395 236 626
163z m4427 3 c29 -6 91 -29 138 -51 133 -63 251 -196 284 -318 4 -14 -8 4 -26
40 -45 91 -152 197 -245 244 -169 84 -371 89 -538 12 -111 -51 -218 -155 -274
-264 -28 -56 -35 -54 -11 3 52 122 174 243 297 296 108 46 260 62 375 38z"/>
<path d="M5318 4693 c7 -3 16 -2 19 1 4 3 -2 6 -13 5 -11 0 -14 -3 -6 -6z"/>
<path d="M5558 4693 c6 -2 18 -2 25 0 6 3 1 5 -13 5 -14 0 -19 -2 -12 -5z"/>
<path d="M4231 4669 c-286 -17 -530 -76 -724 -176 -51 -26 -159 -93 -240 -148
-81 -55 -178 -119 -215 -142 -37 -23 -78 -54 -92 -70 -27 -30 -189 -168 -230
-196 l-24 -17 24 0 c14 0 77 5 140 10 218 18 696 50 975 65 431 23 442 24 448
43 3 9 16 58 30 107 14 50 52 188 86 308 34 120 61 220 61 222 0 6 -51 5 -239
-6z m-1035 -464 c-3 -9 -11 -13 -16 -10 -8 5 -7 11 1 21 14 18 24 11 15 -11z
m-19 -58 c17 -33 14 -108 -6 -159 -10 -26 -15 -28 -66 -28 -69 0 -113 18 -148
60 -28 32 -28 32 -9 63 35 61 138 113 195 99 10 -3 25 -18 34 -35z m-210 -157
c18 -16 39 -31 46 -31 19 -3 -94 -17 -138 -18 l-40 0 45 39 c25 22 47 40 49
40 2 0 19 -13 38 -30z"/>
<path d="M4491 4378 c-29 -167 -55 -314 -58 -327 l-6 -24 204 7 c112 4 341 11
508 16 167 5 305 11 307 12 3 4 74 493 74 516 0 17 -12 23 -67 35 -190 43
-456 67 -739 67 l-170 0 -53 -302z"/>
<path d="M5588 4643 c7 -3 16 -2 19 1 4 3 -2 6 -13 5 -11 0 -14 -3 -6 -6z"/>
<path d="M5545 4577 c-2 -7 -13 -115 -25 -242 -11 -126 -23 -240 -26 -252 l-4
-23 197 0 c109 0 222 3 252 7 l54 6 38 84 c62 134 50 187 -57 258 -58 39 -268
128 -372 159 -40 11 -54 12 -57 3z"/>
<path d="M7188 4153 c6 -2 18 -2 25 0 6 3 1 5 -13 5 -14 0 -19 -2 -12 -5z"/>
<path d="M7178 3960 l-81 -80 5 -63 c3 -36 15 -81 27 -106 l23 -43 88 4 c123
6 127 10 119 130 -3 51 -15 119 -25 151 -16 49 -23 59 -46 64 -15 3 -25 9 -22
14 15 25 -15 1 -88 -71z"/>
<path d="M2485 4000 l-40 -7 35 0 c19 -1 49 3 65 7 27 7 27 8 5 7 -14 0 -43
-3 -65 -7z"/>
<path d="M2393 3983 c9 -2 23 -2 30 0 6 3 -1 5 -18 5 -16 0 -22 -2 -12 -5z"/>
<path d="M2323 3973 c9 -2 23 -2 30 0 6 3 -1 5 -18 5 -16 0 -22 -2 -12 -5z"/>
<path d="M2243 3963 c9 -2 23 -2 30 0 6 3 -1 5 -18 5 -16 0 -22 -2 -12 -5z"/>
<path d="M2173 3953 c9 -2 23 -2 30 0 6 3 -1 5 -18 5 -16 0 -22 -2 -12 -5z"/>
<path d="M1988 3933 c7 -3 16 -2 19 1 4 3 -2 6 -13 5 -11 0 -14 -3 -6 -6z"/>
<path d="M1918 3923 c7 -3 16 -2 19 1 4 3 -2 6 -13 5 -11 0 -14 -3 -6 -6z"/>
<path d="M1848 3913 c7 -3 16 -2 19 1 4 3 -2 6 -13 5 -11 0 -14 -3 -6 -6z"/>
<path d="M2628 3913 c12 -2 30 -2 40 0 9 3 -1 5 -23 4 -22 0 -30 -2 -17 -4z"/>
<path d="M2523 3903 c9 -2 25 -2 35 0 9 3 1 5 -18 5 -19 0 -27 -2 -17 -5z"/>
<path d="M2358 3893 c7 -3 16 -2 19 1 4 3 -2 6 -13 5 -11 0 -14 -3 -6 -6z"/>
<path d="M2253 3883 c9 -2 25 -2 35 0 9 3 1 5 -18 5 -19 0 -27 -2 -17 -5z"/>
<path d="M2163 3873 c9 -2 25 -2 35 0 9 3 1 5 -18 5 -19 0 -27 -2 -17 -5z"/>
<path d="M2083 3863 c9 -2 23 -2 30 0 6 3 -1 5 -18 5 -16 0 -22 -2 -12 -5z"/>
<path d="M1768 3833 c6 -2 18 -2 25 0 6 3 1 5 -13 5 -14 0 -19 -2 -12 -5z"/>
<path d="M4158 3833 c12 -2 30 -2 40 0 9 3 -1 5 -23 4 -22 0 -30 -2 -17 -4z"/>
<path d="M687 3589 c-63 -15 -93 -36 -128 -90 l-33 -52 32 -28 c30 -27 38 -29
120 -30 l87 -1 -50 -19 c-30 -11 -38 -17 -20 -14 61 11 155 69 242 148 48 44
90 84 91 89 5 11 -293 8 -341 -3z"/>
</g>
</svg>
