<?xml version="1.0" standalone="no"?>
<!DOCTYPE svg PUBLIC "-//W3C//DTD SVG 20010904//EN"
 "http://www.w3.org/TR/2001/REC-SVG-20010904/DTD/svg10.dtd">
<svg version="1.0" xmlns="http://www.w3.org/2000/svg"
 width="628.000000pt" height="570.000000pt" viewBox="0 0 628.000000 570.000000"
 preserveAspectRatio="xMidYMid meet">

<g transform="translate(0.000000,570.000000) scale(0.100000,-0.100000)"
fill="rgba(255, 255, 255, 1)" stroke="none" >
<path d="M0 2850 l0 -2850 3140 0 3140 0 0 2850 0 2850 -3140 0 -3140 0 0
-2850z m1990 2049 c210 -21 464 -77 682 -152 l126 -43 53 39 c131 94 275 139
449 140 274 2 442 -99 1000 -598 272 -244 789 -763 821 -825 20 -39 24 -60 24
-146 0 -94 -2 -104 -33 -163 -45 -86 -178 -284 -257 -381 -73 -90 -128 -142
-158 -150 -13 -4 -79 -92 -176 -236 -86 -126 -186 -270 -222 -319 -36 -50 -71
-100 -78 -112 -17 -32 -63 -53 -116 -53 -46 0 -60 6 -400 162 -71 33 -150 69
-175 80 -164 76 -322 148 -425 195 -126 57 -140 64 -300 138 -55 26 -183 84
-285 130 -102 46 -225 102 -275 125 -49 23 -106 49 -125 58 -109 50 -146 131
-102 224 9 20 134 208 277 417 328 481 298 429 281 477 -34 99 -45 291 -20
380 5 20 -2 24 -73 47 -241 80 -466 118 -733 124 -342 9 -583 -33 -924 -159
-127 -47 -189 -49 -232 -6 -35 35 -104 211 -104 266 0 91 43 122 276 201 413
138 794 182 1224 140z m-1343 -1036 c123 -208 173 -299 242 -445 148 -310 164
-437 77 -602 -45 -87 -112 -150 -203 -194 -76 -36 -81 -37 -193 -37 -95 0
-124 4 -170 23 -111 44 -208 142 -252 252 -30 76 -36 202 -13 283 42 153 167
408 348 712 65 110 76 125 87 125 5 0 39 -53 77 -117z m4694 -840 c69 -71 149
-157 178 -193 29 -36 59 -73 68 -84 8 -10 50 -71 92 -136 209 -316 339 -669
387 -1050 17 -136 19 -497 3 -570 -39 -184 -283 -249 -404 -107 -51 59 -59 99
-51 259 27 576 -176 1102 -589 1530 l-85 88 49 67 c62 85 201 303 201 314 0
27 39 -4 151 -118z"/>
<path d="M2722 3488 c-21 -29 -98 -142 -172 -250 -121 -179 -132 -200 -122
-222 11 -24 42 -41 202 -111 41 -18 119 -53 173 -79 55 -25 100 -46 102 -46 4
0 57 -25 289 -134 65 -31 120 -56 122 -56 4 0 226 -101 363 -166 51 -24 95
-44 98 -44 2 0 53 -23 111 -51 135 -64 151 -67 178 -37 12 13 79 107 149 211
113 168 126 191 123 225 -3 42 -4 42 -208 131 -63 27 -159 70 -212 95 -53 25
-100 46 -103 46 -10 0 -502 246 -602 301 l-93 51 0 -44 1 -43 275 -200 c151
-110 285 -207 297 -215 12 -7 65 -45 117 -83 164 -120 187 -149 175 -219 -14
-82 -100 -128 -174 -93 -20 9 -96 60 -169 114 -74 53 -144 103 -156 111 -11 8
-64 47 -116 86 -123 92 -263 195 -370 271 -105 75 -136 106 -143 141 -3 15 2
92 11 171 l16 144 -30 23 c-17 14 -42 24 -61 24 -27 0 -38 -8 -71 -52z"/>
</g>
</svg>
